<?xml version="1.0" encoding="utf-8"?>
<!-- Generator: Adobe Illustrator 17.1.0, SVG Export Plug-In . SVG Version: 6.00 Build 0)  -->
<!DOCTYPE svg PUBLIC "-//W3C//DTD SVG 1.1//EN" "http://www.w3.org/Graphics/SVG/1.1/DTD/svg11.dtd">
<svg version="1.1" id="Layer_1" xmlns="http://www.w3.org/2000/svg" xmlns:xlink="http://www.w3.org/1999/xlink" x="0px" y="0px"
	 viewBox="0 0 960 560" enable-background="new 0 0 960 560" xml:space="preserve">
<g>
	<linearGradient id="SVGID_1_" gradientUnits="userSpaceOnUse" x1="436.5684" y1="258.0203" x2="436.5684" y2="29.482">
		<stop  offset="0" style="stop-color:#7D0A4A"/>
		<stop  offset="1" style="stop-color:#CB2756"/>
	</linearGradient>
	<path fill-rule="evenodd" clip-rule="evenodd" fill="url(#SVGID_1_)" d="M587.3,72.8c-21.6,13.5-139.1,64.2-173.9,82.4l19.3-36.3
		l5.1,9.6c17.4-8.9,35.4-17.5,53.9-24.5l-24.1-42.2c-23.2-40.6-44.3-44.8-68.6-2.1L285.8,258c13.3-9.9,26.9-19.6,40.4-28.9
		C379.3,192.4,516,123.7,574,95.3C587.2,88.9,587,74.1,587.3,72.8z"/>
	<linearGradient id="SVGID_2_" gradientUnits="userSpaceOnUse" x1="482.1956" y1="289.7506" x2="482.1956" y2="178.0637">
		<stop  offset="0" style="stop-color:#7D0A4A"/>
		<stop  offset="1" style="stop-color:#CB2756"/>
	</linearGradient>
	<path fill-rule="evenodd" clip-rule="evenodd" fill="url(#SVGID_2_)" d="M366.8,289.8c21.7-16.2,43.4-32.2,65.6-47.8h65.7
		l-17.3-32.6c17-11,34.9-21.8,53.1-31.3l63.7,111.7H366.8z"/>
</g>
<path fill-rule="evenodd" clip-rule="evenodd" fill="#FBB50F" d="M500,187.7c-59.1,33.3-125.5,79.1-156.3,102l-76,0.1l0.8-0.6
	c21.4-17.5,103-74.8,182.4-120.6c43.1-24.9,92.5-44.8,135.8-72.8c20.4-13.2,8.4-45.9-5.1-56.8C603.4,52.3,620.3,60.5,628,77
	c3,6.4,3.7,27.2-12,39C582,141.7,533.4,168.8,500,187.7z"/>
<linearGradient id="SVGID_3_" gradientUnits="userSpaceOnUse" x1="117.7178" y1="364.6538" x2="229.3813" y2="364.6538">
	<stop  offset="0" style="stop-color:#7D0A4A"/>
	<stop  offset="1" style="stop-color:#CB2756"/>
</linearGradient>
<path fill="url(#SVGID_3_)" d="M151.4,411.5l12.4-24h28.9l-19-37.6L142,411.5h-24.3l43-83.4c2.9-5.5,6.9-10.3,13.3-10.3
	c6.2,0,10.3,4.5,13.2,10.3l42,83.4H151.4z"/>
<linearGradient id="SVGID_4_" gradientUnits="userSpaceOnUse" x1="236.5972" y1="365.4116" x2="321.9746" y2="365.4116">
	<stop  offset="0" style="stop-color:#7D0A4A"/>
	<stop  offset="1" style="stop-color:#CB2756"/>
</linearGradient>
<path fill="url(#SVGID_4_)" d="M236.6,411.5v-56.9h20.8v32.9h24.2c12.8,0,19.7-8.1,19.7-23c0-13.1-7.5-21.2-19.7-21.2h-44.9l13.3-24
	h31.6c23.7,0,40.4,18.7,40.4,45.2c0,26.9-17.3,47-40.4,47H236.6z"/>
<path fill="#FBB50F" d="M332.4,411.5v-92.2h20.8v68.2h52l-13.3,24H332.4z"/>
<path fill="#FBB50F" d="M432.7,355.1h53.1l-12,20.4h-41v12h57.1l-13.2,24H412v-92.2h77.8l-13.4,24h-43.5V355.1z"/>
<path fill="#FBB50F" d="M519,411.5l12.4-24h28.9l-19-37.6l-31.8,61.6h-24.3l43-83.4c2.9-5.5,6.9-10.3,13.3-10.3
	c6.2,0,10.3,4.5,13.2,10.3l42,83.4H519z"/>
<path fill="#FBB50F" d="M604.2,411.5v-56.9h20.8v32.9h24.2c12.8,0,19.7-8.1,19.7-23c0-13.1-7.5-21.2-19.7-21.2h-44.9l13.3-24h31.6
	c23.7,0,40.4,18.7,40.4,45.2c0,26.9-17.3,47-40.4,47H604.2z"/>
<g>
	
		<linearGradient id="SVGID_5_" gradientUnits="userSpaceOnUse" x1="738.981" y1="412.796" x2="738.981" y2="264.6452" gradientTransform="matrix(-0.9912 -0.1326 -0.1326 0.9912 1487.6836 99.108)">
		<stop  offset="0" style="stop-color:#7D0A4A"/>
		<stop  offset="1" style="stop-color:#CB2756"/>
	</linearGradient>
	<path fill="url(#SVGID_5_)" d="M709.8,373.6c-0.6-0.5-1-1.2-1.5-1.8c-1-1.5-2.1-3-3.1-4.5c-0.2-0.3-0.4-0.6-0.7-0.9
		c-0.1-0.1-0.5-0.2-0.6,0c-0.3,0.5-0.6,1-0.9,1.5c-3.6,6.6-7.2,13.3-10.8,19.9c-3,5.6-6.1,11.2-9.1,16.7c-0.4,0.7-0.7,1.5-1.1,2.2
		c0,0.1,0,0.2,0,0.2c0.1,0.1,0.2,0.2,0.3,0.2c0.5-0.2,1.1-0.3,1.6-0.5c3-1.1,5.9-2.3,8.9-3.5c0.5-0.2,0.9-0.4,1.4-0.5
		c0.5-0.2,1-0.1,1.4,0.2c0.4,0.3,0.8,0.5,1.2,0.8c3.3,2.2,6.6,4.4,9.8,6.5c0.5,0.3,1,0.6,1.4,0.9c0.7,0.5,1.2,0.5,1.3-0.8
		c0.1-0.6,0.2-1.2,0.2-1.8c1.2-8.8,2.4-17.7,3.5-26.5c0.3-2.8,1-5.4,1.7-8.1c0.7-2.4,1.4-4.9,2-7.3c0.7-2.4,1.4-4.9,2-7.3
		c0.8-2.9,1.6-5.8,2.4-8.6c0.1-0.5,0-0.9-0.4-1.2c-1.1-0.7-2.3-1.4-3.4-2.1c-5.5-3.4-11-6.7-16.5-10.1c-0.7-0.4-1.4-0.9-2.1-1.4
		c-0.2-0.1-0.3-0.3-0.4-0.4c0-0.2,0.1-0.3,0.3-0.2c0.9,0.4,1.8,0.8,2.6,1.2c3.7,1.8,7.3,3.7,11,5.5c0.4,0.2,0.9,0.4,1.3,0.6
		c0.4,0.2,0.8,0.1,1.2-0.2c0.4-0.3,0.8-0.6,1.2-0.9c4.3-3.5,8.6-6.9,12.9-10.4c0.3-0.3,0.7-0.6,1-0.9c0,0,0.1-0.2,0.1-0.2
		c-0.1-0.1-0.1-0.3-0.2-0.3c-1.8-0.3-3.5-0.5-5.3-0.7c-2.1-0.2-4.3-0.4-6.4-0.7c-4.9-0.6-9.7-1.2-14.6-1.8c-1-0.1-2-0.3-3.1-0.5
		c-0.2,0-0.2-0.2-0.2-0.3c0-0.1,0.1-0.1,0.2-0.1c1.6,0,3.2,0,4.8,0c1.8,0,3.6,0.1,5.4,0.1c2.5,0.1,5,0.1,7.4,0.2c2,0,4,0,6,0.1
		c1.7,0,3.4,0.1,5.2,0.1c2.5,0.1,5,0.1,7.4,0.2c1.9,0,3.9,0.1,5.8,0.2c2,0,4,0.1,6,0.1c0.9,0,1.8,0.1,2.7,0.1c0.8,0.1,1.5-0.2,2-0.9
		c2.3-2.5,4.5-5.1,6.8-7.6c6.5-7.2,13.1-14.5,19.6-21.7c0.2-0.2,0.4-0.5,0.5-0.7c0,0,0-0.2,0-0.2c0-0.1-0.1-0.1-0.2-0.1
		c-0.3,0.1-0.7,0.1-1,0.2c-6.1,1.9-12.3,3.8-18.4,5.7c-14.8,4.6-29.7,9.3-44.5,13.9c-7.1,2.2-14.2,4.4-21.3,6.6
		c-1.3,0.4-2.7,0.9-4.1,1c0,0-0.1,0-0.1,0l0.2,0c0.5-0.6,1.2-0.8,1.8-1c1.5-0.6,3-1.2,4.5-1.8c13.1-5,26.2-9.9,39.3-14.8
		c1.1-0.4,2.1-0.8,3.1-1.2c0.3-0.1,0.6-0.4,0.6-0.9c0.1-0.7,0.1-1.4,0.2-2.1c0-0.5,0-1.1,0.1-1.6c0.3-3.4,0.5-6.7,0.8-10.1
		c0.1-1.1,0.1-2.1,0.2-3.2c0-0.5,0-1.1,0.1-1.6c0.2-2.2,0.4-4.4,0.5-6.7c0.2-3.1,0.5-6.1,0.7-9.2c0-0.5,0-1.1,0-1.6
		c0-0.2-0.2-0.5-0.4-0.5c-0.1,0-0.3,0-0.4,0.1c-0.6,0.6-1.1,1.2-1.7,1.8c-13.3,14.3-26.5,28.5-39.8,42.8c-3.3,3.5-6.5,7-9.8,10.5
		c-0.3,0.4-0.7,0.7-1.1,1c0,0-0.1,0-0.2,0c-0.1,0-0.1-0.1-0.1-0.2c0.1-0.3,0.1-0.6,0.2-0.9c1-1.8,2-3.6,2.9-5.4
		c1.4-2.6,2.8-5.2,4.2-7.7c0.3-0.5,0.5-0.9,0.7-1.4c0.1-0.1-0.1-0.5-0.2-0.6c-0.6-0.4-1.3-0.5-1.9-0.7c-2.2-0.6-4.4-1.1-6.6-1.7
		c-1.7-0.4-3.3-0.9-5-1.3c-0.9-0.2-1.7-0.4-2.6-0.7c-0.9-0.3-1.9-0.5-2.8-0.5c-0.7,0.3-1.2,0.9-1.7,1.4c-1.5,1.5-3,3.1-4.5,4.6
		c-0.3,0.3-0.5,0.5-0.8,0.8c-0.5,0.5-1,0.8-1.6,1c-1.5,0.4-3,0.7-4.5,1.1c-5.3,1.3-10.6,2.6-15.8,3.9c-0.3,0.1-0.5,0.1-0.7,0.4
		c0.2,0.3,0.6,0.2,0.9,0.2c1.7,0,3.4,0,5.2,0c1.7,0,3.4,0.1,5.2,0.1c1.7,0,3.4,0,5.2,0c1,0,2.1,0.1,3.1,0.1c0.6,0,1.1,0.2,1.5,0.5
		c0.9,0.7,1.8,1.3,2.8,1.9c3.9,2.7,7.7,5.4,11.6,8.1c0.5,0.4,1,0.8,1.6,1.1c0.8,0.5,1.4,1.2,1.8,2.1c1.2,2.3,2.4,4.6,3.5,6.9
		c5.9,11.6,11.8,23.2,17.8,34.9c0.3,0.7,0.6,1.3,0.9,2C709.9,373.1,709.9,373.4,709.8,373.6C709.8,373.7,709.9,373.6,709.8,373.6
		L709.8,373.6z"/>
	
		<linearGradient id="SVGID_6_" gradientUnits="userSpaceOnUse" x1="687.7679" y1="360.2949" x2="705.0345" y2="360.2949" gradientTransform="matrix(-0.9912 -0.1326 -0.1326 0.9912 1487.6836 99.108)">
		<stop  offset="0" style="stop-color:#7D0A4A"/>
		<stop  offset="1" style="stop-color:#CB2756"/>
	</linearGradient>
	<path fill="url(#SVGID_6_)" d="M748.5,372.2c2.3,0.3,4.5,0.6,6.8,0.9c0.4,0.1,0.8,0.1,1.2,0c0.2,0,0.4-0.2,0.5-0.4
		c0.2-0.5,0.3-1,0.4-1.5c0.4-2.7,0.7-5.5,1.1-8.2c0.2-1.4,0.4-2.9,0.6-4.3c0-0.4,0.1-0.8,0.1-1.1c0-0.4-0.2-0.8-0.5-0.9
		c-0.3-0.1-0.7-0.2-1-0.2c-1-0.1-1.9-0.3-2.9-0.4c-3.3-0.5-6.7-0.9-10-1.4c-0.6-0.1-1.2-0.1-1.8-0.2c-0.3,0-0.6,0.3-0.6,0.5
		c-0.1,0.3-0.2,0.6-0.2,0.9c-0.6,4.5-1.2,9-1.8,13.5c0,0.2,0,0.5-0.1,0.7c0,0.5,0.2,0.9,0.6,1c0.5,0.1,1.1,0.2,1.6,0.3
		C744.5,371.6,746.5,371.9,748.5,372.2C748.5,372.2,748.5,372.2,748.5,372.2z"/>
	
		<linearGradient id="SVGID_7_" gradientUnits="userSpaceOnUse" x1="661.4588" y1="330.0735" x2="676.1538" y2="330.0735" gradientTransform="matrix(-0.9912 -0.1326 -0.1326 0.9912 1487.6836 99.108)">
		<stop  offset="0" style="stop-color:#7D0A4A"/>
		<stop  offset="1" style="stop-color:#CB2756"/>
	</linearGradient>
	<path fill="url(#SVGID_7_)" d="M781.9,330.5c-1.8-0.2-3.7-0.5-5.5-0.7c-0.4-0.1-0.8-0.1-1.2,0c-0.2,0-0.4,0.2-0.5,0.4
		c-0.1,0.3-0.2,0.6-0.2,0.9c-0.5,3.7-1,7.5-1.5,11.2c0,0.2,0,0.5,0,0.7c0,0.3,0.3,0.8,0.6,0.8c0.4,0.1,0.8,0.2,1.2,0.3
		c0.9,0.1,1.8,0.3,2.7,0.4c2.7,0.4,5.3,0.7,8,1.1c1.9,0.2,2,0,2.3-2c0.4-3.3,0.9-6.7,1.3-10c0.1-0.5,0.1-0.9,0.1-1.4
		c0-0.2-0.2-0.4-0.4-0.5c-0.4-0.1-0.8-0.2-1.2-0.3C785.6,330.9,783.8,330.7,781.9,330.5z"/>
	<g>
		<path fill="#FBB50F" d="M752.7,349.1c2.1,0.3,4.2,0.6,6.3,0.9c0.5,0.1,1.1,0.1,1.6,0.2c0.4,0,0.8-0.3,0.9-0.8
			c0.1-0.7,0.2-1.4,0.3-2c0.5-3.7,1-7.3,1.4-11c0.1-0.8,0.2-1.5,0.3-2.3c0-0.2,0.1-0.5,0-0.7c-0.1-0.2-0.2-0.4-0.4-0.5
			c-0.5-0.2-1.1-0.3-1.6-0.4c-4.5-0.6-9-1.2-13.5-1.8c-0.4-0.1-0.8-0.1-1.2-0.1c-0.1,0-0.3,0-0.4,0.1c-0.2,0.1-0.4,0.2-0.4,0.4
			c-0.1,0.3-0.2,0.6-0.2,0.9c-0.6,4.8-1.3,9.6-1.9,14.4c0,0.4,0,0.8,0,1.1c0,0.1,0.1,0.3,0.2,0.3c0.4,0.1,0.8,0.2,1.2,0.3
			C747.8,348.4,750.3,348.7,752.7,349.1C752.7,349.1,752.7,349.1,752.7,349.1z"/>
		<path fill="#FBB50F" d="M755.7,395.6c1.8,0.2,3.5,0.5,5.3,0.7c0.5,0.1,1,0.1,1.4,0.1c0.3,0,0.6-0.3,0.7-0.7c0-0.2,0.1-0.3,0.1-0.5
			c0.5-4,1.1-8.1,1.6-12.1c0-0.2,0.1-0.5,0-0.7c0-0.2-0.2-0.4-0.3-0.5c-0.2-0.1-0.5-0.2-0.8-0.2c-4.2-0.6-8.3-1.1-12.5-1.7
			c-0.3,0-0.6,0-0.8,0c-0.2,0-0.4,0.2-0.4,0.4c-0.1,0.3-0.2,0.6-0.2,0.9c-0.5,3.9-1,7.8-1.5,11.6c0,0.3-0.1,0.6,0,0.9
			c0,0.2,0.2,0.4,0.3,0.5c0.3,0.1,0.7,0.2,1,0.3C751.7,395,753.7,395.3,755.7,395.6C755.7,395.6,755.7,395.6,755.7,395.6z"/>
		<path fill="#FBB50F" d="M732.5,356.2c1.6,0.2,3.3,0.4,4.9,0.7c0.2,0,0.4,0,0.6,0c0.3,0,0.6-0.2,0.6-0.5c0.1-0.2,0.1-0.4,0.2-0.7
			c0.4-3.2,0.8-6.4,1.3-9.6c0-0.2,0-0.5,0-0.7c0-0.3-0.2-0.6-0.4-0.7c-0.3-0.1-0.5-0.1-0.8-0.2c-3.3-0.4-6.5-0.9-9.8-1.3
			c-0.3,0-0.6-0.1-0.8,0c-0.2,0-0.4,0.2-0.5,0.4c-0.1,0.2-0.2,0.4-0.2,0.7c-0.4,3.3-0.9,6.5-1.3,9.8c0,0.2-0.1,0.5,0,0.7
			c0.1,0.2,0.2,0.4,0.3,0.5c0.3,0.1,0.7,0.2,1,0.2C729.2,355.8,730.9,356,732.5,356.2C732.5,356.2,732.5,356.2,732.5,356.2z"/>
		<path fill="#FBB50F" d="M769.7,378.4c1.4,0.2,2.9,0.4,4.3,0.6c0.4,0.1,0.8,0.1,1.2,0.1c0.3,0,0.7-0.3,0.8-0.7
			c0.1-0.2,0.1-0.4,0.2-0.7c0.4-2.9,0.8-5.8,1.1-8.7c0-0.3,0-0.6,0-0.9c0-0.3-0.2-0.6-0.5-0.7c-0.3-0.1-0.5-0.2-0.8-0.3
			c-3.1-0.4-6.3-0.9-9.4-1.3c-0.3,0-0.5,0-0.8,0c-0.2,0-0.5,0.3-0.6,0.6c0,0.1-0.1,0.1-0.1,0.2c-0.4,3.3-0.9,6.5-1.3,9.8
			c0,0.1,0,0.3,0,0.5c0.1,0.2,0.2,0.4,0.3,0.5c0.3,0.2,0.6,0.2,1,0.3C766.7,378,768.2,378.2,769.7,378.4
			C769.7,378.4,769.7,378.4,769.7,378.4z"/>
		<path fill="#FBB50F" d="M769.2,349.6c-1.2-0.2-2.5-0.3-3.7-0.5c-0.4,0-0.7,0.2-0.7,0.6c-0.3,2.4-0.6,4.7-0.9,7.1
			c0,0.4,0.2,0.7,0.6,0.8c1,0.2,2,0.3,3.1,0.5c1.2,0.2,2.5,0.3,3.7,0.5c0.3,0,0.5,0,0.8,0c0.1,0,0.2-0.2,0.3-0.3
			c0.1-0.1,0.2-0.3,0.2-0.4c0.3-2.3,0.6-4.6,0.9-6.8c0-0.1,0-0.1,0-0.2c0-0.3-0.2-0.6-0.5-0.6C771.7,350,770.5,349.8,769.2,349.6
			C769.2,349.6,769.2,349.6,769.2,349.6z"/>
		<path fill="#FBB50F" d="M730.7,373c1.1,0.1,2.2,0.2,3.3,0.3c0.4,0,0.8-0.3,0.9-0.8c0.3-1.9,0.5-3.8,0.8-5.7c0-0.2,0-0.3,0-0.5
			c0-0.5-0.3-0.9-0.7-1c-2.2-0.5-4.5-0.8-6.7-0.9c-0.4,0-0.8,0.3-0.9,0.8c-0.3,2-0.6,4.1-0.8,6.1c-0.1,0.5,0.2,0.9,0.6,1
			c0.3,0.1,0.5,0.1,0.8,0.2C728.9,372.7,729.8,372.8,730.7,373C730.7,373,730.7,373,730.7,373z"/>
	</g>
	
		<linearGradient id="SVGID_8_" gradientUnits="userSpaceOnUse" x1="665.8851" y1="385.2465" x2="672.9626" y2="385.2465" gradientTransform="matrix(-0.9912 -0.1326 -0.1326 0.9912 1487.6836 99.108)">
		<stop  offset="0" style="stop-color:#7D0A4A"/>
		<stop  offset="1" style="stop-color:#CB2756"/>
	</linearGradient>
	<path fill="url(#SVGID_8_)" d="M772.7,395.5c0.9,0.1,1.8,0.3,2.6,0.4c0.3,0,0.7-0.3,0.8-0.6c0.3-1.7,0.6-3.5,0.7-5.2
		c0-0.3-0.2-0.6-0.4-0.7c-0.1,0-0.1-0.1-0.2-0.1c-1.8-0.2-3.5-0.5-5.3-0.7c-0.4-0.1-0.8,0.3-0.9,0.7c-0.4,1.6-0.6,3.3-0.7,5
		c0,0.4,0.3,0.8,0.7,0.9C771,395.3,771.9,395.4,772.7,395.5C772.7,395.5,772.7,395.5,772.7,395.5z"/>
	
		<linearGradient id="SVGID_9_" gradientUnits="userSpaceOnUse" x1="734.4869" y1="375.3046" x2="734.5919" y2="375.3046" gradientTransform="matrix(-0.9912 -0.1326 -0.1326 0.9912 1487.6836 99.108)">
		<stop  offset="0" style="stop-color:#D49430"/>
		<stop  offset="0.1453" style="stop-color:#E48725"/>
		<stop  offset="0.2453" style="stop-color:#F79521"/>
		<stop  offset="0.5" style="stop-color:#FFE166"/>
		<stop  offset="0.7342" style="stop-color:#FDDF5E"/>
		<stop  offset="1" style="stop-color:#C17429"/>
	</linearGradient>
	<polygon fill="url(#SVGID_9_)" points="709.8,373.6 709.9,373.6 709.8,373.7 	"/>
	
		<linearGradient id="SVGID_10_" gradientUnits="userSpaceOnUse" x1="760.0576" y1="327.2886" x2="760.2172" y2="327.2886" gradientTransform="matrix(-0.9912 -0.1326 -0.1326 0.9912 1487.6836 99.108)">
		<stop  offset="0" style="stop-color:#D49430"/>
		<stop  offset="0.1453" style="stop-color:#E48725"/>
		<stop  offset="0.2453" style="stop-color:#F79521"/>
		<stop  offset="0.5" style="stop-color:#FFE166"/>
		<stop  offset="0.7342" style="stop-color:#FDDF5E"/>
		<stop  offset="1" style="stop-color:#C17429"/>
	</linearGradient>
	<polygon fill="url(#SVGID_10_)" points="690.9,322.7 690.8,322.7 690.9,322.7 	"/>
</g>
<linearGradient id="SVGID_11_" gradientUnits="userSpaceOnUse" x1="409.7978" y1="424" x2="409.7978" y2="418">
	<stop  offset="0" style="stop-color:#7D0A4A"/>
	<stop  offset="1" style="stop-color:#CB2756"/>
</linearGradient>
<polygon fill-rule="evenodd" clip-rule="evenodd" fill="url(#SVGID_11_)" points="114.7,418 111.5,424 707.1,424 708.1,418 "/>
<g>
	<g>
		<path d="M223.1,456.3c-1.8,1.2-4.1,1.8-7.1,1.8h-10.6v-1.1l2-1.2v-21.5l-1.8-1.2v-1.1H216c2.8,0,5.1,0.6,7,1.7
			c1.8,1.1,2.8,2.8,2.8,5.1v12.4C225.7,453.4,224.8,455.1,223.1,456.3z M212.8,454.2c0,0.3-0.1,0.6-0.2,0.8s-0.5,0.3-0.9,0.4
			l0.1,0.2h4.3c2.9,0,4.4-1.5,4.4-4.4v-12.5c0-2.9-1.5-4.3-4.4-4.3h-3.2V454.2z"/>
		<path d="M251.8,456.9v1.1h-9.2v-1.1l2-1.2v-21.7l-1.7-1v-1.1h8.6v1.1l-1.7,1v21.7L251.8,456.9z"/>
		<path d="M278.5,455.9c1.5,0,2.7-0.4,3.3-1.1c0.7-0.7,1-1.7,1-2.8v-2.9l-2.7-1.3v-1.2h8.1v11.4h-3.3l-0.5-1.8
			c-0.6,0.8-1.4,1.3-2.4,1.7c-1,0.4-2.2,0.5-3.3,0.5c-3,0-5.4-0.6-7.2-1.8c-1.8-1.2-2.7-2.9-2.7-5.2v-13.1c0-1.5,0.5-2.8,1.4-3.9
			c0.9-1,2.1-1.8,3.6-2.3c1.5-0.5,3-0.7,4.6-0.7c2.6,0,4.5,0.5,5.7,1.4h0.2l0.4-1h3.5v7.1h-5.3v-2.1c0-1-0.4-1.7-1.3-2.1
			c-0.9-0.5-1.9-0.7-3.2-0.7c-1.3,0-2.3,0.3-3.1,1c-0.8,0.7-1.2,1.8-1.2,3.3v13.1C274,454.5,275.5,455.9,278.5,455.9z"/>
		<path d="M314.1,456.9v1.1h-9.2v-1.1l2-1.2v-21.7l-1.7-1v-1.1h8.6v1.1l-1.7,1v21.7L314.1,456.9z"/>
		<path d="M340.9,455.5l2,1.2v1.3h-9.4v-1.3l2-1.2v-21.2h-3.5l-1.6,4.2h-2.4l0.2-6.6h20l0.2,6.6H346l-1.7-4.2h-3.3V455.5z"/>
		<path d="M363.9,456.2l1.8,0.7v1.2h-6.8v-1.2l1.7-0.7l7.5-24.3h5.2l7.8,24.2l1.7,0.9v1.2h-8.8v-1l1.7-0.9l-1.6-5.1h-8.7
			L363.9,456.2z M366.1,448.8h7.4l-3.7-12.3h-0.1L366.1,448.8z"/>
		<path d="M395.1,456.9l2.1-1.2v-21.7l-1.8-1v-1.1h8.8v1.1l-1.7,1v20.3c0,0.4-0.4,0.8-1.1,1.2v0.2h7.5l1.7-3.5h2.2l0.1,5.8h-17.8
			V456.9z"/>
		<path d="M465.8,456.9v1.2h-7.5v-1.2l1.9-1v-21.7l-1.8-1v-1.1h7.1c1.2,0,2.1,0.1,2.6,0.3s0.9,0.7,1.1,1.5c0.9,3.9,1.6,7.2,2.2,10
			c0.5,2.8,1,5.9,1.5,9.4h0.1l4.1-19.6c0.2-0.7,0.5-1.1,0.8-1.3c0.4-0.2,1.1-0.3,2.1-0.3h7.4v1.1l-1.8,1v21.7l2,1.2v1.1h-9.3v-1.1
			l2-1.2v-17.4v-3.8h-0.2l-5.1,23.2h-4.3c-0.5,0-0.9-0.1-1.2-0.2c-0.3-0.2-0.4-0.4-0.5-0.8c-1.8-8.9-3.4-16.2-4.7-21.8h-0.7l0.3,4.7
			v16.2L465.8,456.9z"/>
		<path d="M503.2,456.9l2.1-1.2V434l-1.8-1v-1h17.4v5.8h-2.5l-1.4-3.5h-6.4v9.7h4.4l1.3-2h1.5v6.3h-1.5l-1.3-1.9h-4.4v8.1
			c0,0.3-0.1,0.6-0.2,0.7s-0.4,0.3-0.9,0.4v0.2h8l1.7-3.5h2.3v5.8h-18.3V456.9z"/>
		<path d="M554.8,456.3c-1.8,1.2-4.1,1.8-7.1,1.8h-10.6v-1.1l2-1.2v-21.5l-1.8-1.2v-1.1h10.4c2.8,0,5.1,0.6,7,1.7
			c1.8,1.1,2.8,2.8,2.8,5.1v12.4C557.5,453.4,556.6,455.1,554.8,456.3z M544.5,454.2c0,0.3-0.1,0.6-0.2,0.8s-0.5,0.3-0.9,0.4
			l0.1,0.2h4.3c2.9,0,4.4-1.5,4.4-4.4v-12.5c0-2.9-1.5-4.3-4.4-4.3h-3.2V454.2z"/>
		<path d="M583.6,456.9v1.1h-9.2v-1.1l2-1.2v-21.7l-1.7-1v-1.1h8.6v1.1l-1.7,1v21.7L583.6,456.9z"/>
		<path d="M601.1,456.2l1.8,0.7v1.2H596v-1.2l1.7-0.7l7.5-24.3h5.2l7.8,24.2l1.7,0.9v1.2h-8.8v-1l1.7-0.9l-1.6-5.1h-8.7L601.1,456.2
			z M603.3,448.8h7.4l-3.7-12.3h-0.1L603.3,448.8z"/>
	</g>
	<g>
		<linearGradient id="SVGID_12_" gradientUnits="userSpaceOnUse" x1="412.7166" y1="458.4795" x2="412.7166" y2="431.5127">
			<stop  offset="0" style="stop-color:#7D0A4A"/>
			<stop  offset="1" style="stop-color:#CB2756"/>
		</linearGradient>
		<path fill="url(#SVGID_12_)" d="M223.1,456.3c-1.8,1.2-4.1,1.8-7.1,1.8h-10.6v-1.1l2-1.2v-21.5l-1.8-1.2v-1.1H216
			c2.8,0,5.1,0.6,7,1.7c1.8,1.1,2.8,2.8,2.8,5.1v12.4C225.7,453.4,224.8,455.1,223.1,456.3z M212.8,454.2c0,0.3-0.1,0.6-0.2,0.8
			s-0.5,0.3-0.9,0.4l0.1,0.2h4.3c2.9,0,4.4-1.5,4.4-4.4v-12.5c0-2.9-1.5-4.3-4.4-4.3h-3.2V454.2z"/>
		<linearGradient id="SVGID_13_" gradientUnits="userSpaceOnUse" x1="412.7166" y1="458.4795" x2="412.7166" y2="431.5127">
			<stop  offset="0" style="stop-color:#7D0A4A"/>
			<stop  offset="1" style="stop-color:#CB2756"/>
		</linearGradient>
		<path fill="url(#SVGID_13_)" d="M251.8,456.9v1.1h-9.2v-1.1l2-1.2v-21.7l-1.7-1v-1.1h8.6v1.1l-1.7,1v21.7L251.8,456.9z"/>
		<linearGradient id="SVGID_14_" gradientUnits="userSpaceOnUse" x1="412.7166" y1="458.4795" x2="412.7166" y2="431.5127">
			<stop  offset="0" style="stop-color:#7D0A4A"/>
			<stop  offset="1" style="stop-color:#CB2756"/>
		</linearGradient>
		<path fill="url(#SVGID_14_)" d="M278.5,455.9c1.5,0,2.7-0.4,3.3-1.1c0.7-0.7,1-1.7,1-2.8v-2.9l-2.7-1.3v-1.2h8.1v11.4h-3.3
			l-0.5-1.8c-0.6,0.8-1.4,1.3-2.4,1.7c-1,0.4-2.2,0.5-3.3,0.5c-3,0-5.4-0.6-7.2-1.8c-1.8-1.2-2.7-2.9-2.7-5.2v-13.1
			c0-1.5,0.5-2.8,1.4-3.9c0.9-1,2.1-1.8,3.6-2.3c1.5-0.5,3-0.7,4.6-0.7c2.6,0,4.5,0.5,5.7,1.4h0.2l0.4-1h3.5v7.1h-5.3v-2.1
			c0-1-0.4-1.7-1.3-2.1c-0.9-0.5-1.9-0.7-3.2-0.7c-1.3,0-2.3,0.3-3.1,1c-0.8,0.7-1.2,1.8-1.2,3.3v13.1
			C274,454.5,275.5,455.9,278.5,455.9z"/>
		<linearGradient id="SVGID_15_" gradientUnits="userSpaceOnUse" x1="412.7166" y1="458.4795" x2="412.7166" y2="431.5127">
			<stop  offset="0" style="stop-color:#7D0A4A"/>
			<stop  offset="1" style="stop-color:#CB2756"/>
		</linearGradient>
		<path fill="url(#SVGID_15_)" d="M314.1,456.9v1.1h-9.2v-1.1l2-1.2v-21.7l-1.7-1v-1.1h8.6v1.1l-1.7,1v21.7L314.1,456.9z"/>
		<linearGradient id="SVGID_16_" gradientUnits="userSpaceOnUse" x1="412.7166" y1="458.4795" x2="412.7166" y2="431.5127">
			<stop  offset="0" style="stop-color:#7D0A4A"/>
			<stop  offset="1" style="stop-color:#CB2756"/>
		</linearGradient>
		<path fill="url(#SVGID_16_)" d="M340.9,455.5l2,1.2v1.3h-9.4v-1.3l2-1.2v-21.2h-3.5l-1.6,4.2h-2.4l0.2-6.6h20l0.2,6.6H346
			l-1.7-4.2h-3.3V455.5z"/>
		<linearGradient id="SVGID_17_" gradientUnits="userSpaceOnUse" x1="412.7166" y1="458.4795" x2="412.7166" y2="431.5127">
			<stop  offset="0" style="stop-color:#7D0A4A"/>
			<stop  offset="1" style="stop-color:#CB2756"/>
		</linearGradient>
		<path fill="url(#SVGID_17_)" d="M363.9,456.2l1.8,0.7v1.2h-6.8v-1.2l1.7-0.7l7.5-24.3h5.2l7.8,24.2l1.7,0.9v1.2h-8.8v-1l1.7-0.9
			l-1.6-5.1h-8.7L363.9,456.2z M366.1,448.8h7.4l-3.7-12.3h-0.1L366.1,448.8z"/>
		<linearGradient id="SVGID_18_" gradientUnits="userSpaceOnUse" x1="412.7166" y1="458.4795" x2="412.7166" y2="431.5127">
			<stop  offset="0" style="stop-color:#7D0A4A"/>
			<stop  offset="1" style="stop-color:#CB2756"/>
		</linearGradient>
		<path fill="url(#SVGID_18_)" d="M395.1,456.9l2.1-1.2v-21.7l-1.8-1v-1.1h8.8v1.1l-1.7,1v20.3c0,0.4-0.4,0.8-1.1,1.2v0.2h7.5
			l1.7-3.5h2.2l0.1,5.8h-17.8V456.9z"/>
		<linearGradient id="SVGID_19_" gradientUnits="userSpaceOnUse" x1="412.7166" y1="458.4795" x2="412.7166" y2="431.5127">
			<stop  offset="0" style="stop-color:#7D0A4A"/>
			<stop  offset="1" style="stop-color:#CB2756"/>
		</linearGradient>
		<path fill="url(#SVGID_19_)" d="M465.8,456.9v1.2h-7.5v-1.2l1.9-1v-21.7l-1.8-1v-1.1h7.1c1.2,0,2.1,0.1,2.6,0.3s0.9,0.7,1.1,1.5
			c0.9,3.9,1.6,7.2,2.2,10c0.5,2.8,1,5.9,1.5,9.4h0.1l4.1-19.6c0.2-0.7,0.5-1.1,0.8-1.3c0.4-0.2,1.1-0.3,2.1-0.3h7.4v1.1l-1.8,1
			v21.7l2,1.2v1.1h-9.3v-1.1l2-1.2v-17.4v-3.8h-0.2l-5.1,23.2h-4.3c-0.5,0-0.9-0.1-1.2-0.2c-0.3-0.2-0.4-0.4-0.5-0.8
			c-1.8-8.9-3.4-16.2-4.7-21.8h-0.7l0.3,4.7v16.2L465.8,456.9z"/>
		<linearGradient id="SVGID_20_" gradientUnits="userSpaceOnUse" x1="412.7166" y1="458.4795" x2="412.7166" y2="431.5127">
			<stop  offset="0" style="stop-color:#7D0A4A"/>
			<stop  offset="1" style="stop-color:#CB2756"/>
		</linearGradient>
		<path fill="url(#SVGID_20_)" d="M503.2,456.9l2.1-1.2V434l-1.8-1v-1h17.4v5.8h-2.5l-1.4-3.5h-6.4v9.7h4.4l1.3-2h1.5v6.3h-1.5
			l-1.3-1.9h-4.4v8.1c0,0.3-0.1,0.6-0.2,0.7s-0.4,0.3-0.9,0.4v0.2h8l1.7-3.5h2.3v5.8h-18.3V456.9z"/>
		<linearGradient id="SVGID_21_" gradientUnits="userSpaceOnUse" x1="412.7166" y1="458.4795" x2="412.7166" y2="431.5127">
			<stop  offset="0" style="stop-color:#7D0A4A"/>
			<stop  offset="1" style="stop-color:#CB2756"/>
		</linearGradient>
		<path fill="url(#SVGID_21_)" d="M554.8,456.3c-1.8,1.2-4.1,1.8-7.1,1.8h-10.6v-1.1l2-1.2v-21.5l-1.8-1.2v-1.1h10.4
			c2.8,0,5.1,0.6,7,1.7c1.8,1.1,2.8,2.8,2.8,5.1v12.4C557.5,453.4,556.6,455.1,554.8,456.3z M544.5,454.2c0,0.3-0.1,0.6-0.2,0.8
			s-0.5,0.3-0.9,0.4l0.1,0.2h4.3c2.9,0,4.4-1.5,4.4-4.4v-12.5c0-2.9-1.5-4.3-4.4-4.3h-3.2V454.2z"/>
		<linearGradient id="SVGID_22_" gradientUnits="userSpaceOnUse" x1="412.7166" y1="458.4795" x2="412.7166" y2="431.5127">
			<stop  offset="0" style="stop-color:#7D0A4A"/>
			<stop  offset="1" style="stop-color:#CB2756"/>
		</linearGradient>
		<path fill="url(#SVGID_22_)" d="M583.6,456.9v1.1h-9.2v-1.1l2-1.2v-21.7l-1.7-1v-1.1h8.6v1.1l-1.7,1v21.7L583.6,456.9z"/>
		<linearGradient id="SVGID_23_" gradientUnits="userSpaceOnUse" x1="412.7166" y1="458.4795" x2="412.7166" y2="431.5127">
			<stop  offset="0" style="stop-color:#7D0A4A"/>
			<stop  offset="1" style="stop-color:#CB2756"/>
		</linearGradient>
		<path fill="url(#SVGID_23_)" d="M601.1,456.2l1.8,0.7v1.2H596v-1.2l1.7-0.7l7.5-24.3h5.2l7.8,24.2l1.7,0.9v1.2h-8.8v-1l1.7-0.9
			l-1.6-5.1h-8.7L601.1,456.2z M603.3,448.8h7.4l-3.7-12.3h-0.1L603.3,448.8z"/>
	</g>
</g>
</svg>
